<svg width="300" height="390" viewBox="0 0 300 390" fill="none" xmlns="http://www.w3.org/2000/svg">
<g id="candleAll">
<circle id="flameShadow" cx="150" cy="150" r="150" fill="url(#paint0_radial_2_11)"/>
<g id="candle">
<rect id="candleBase1" x="110.5" y="224.5" width="84" height="165" fill="url(#paint1_linear_2_11)" stroke="black"/>
<path id="candleBase2" d="M184.905 222.636L184.92 222.64L184.936 222.644L192.697 224.514C193.272 224.653 193.172 225.5 192.579 225.5H110.336C109.73 225.5 109.646 224.625 110.24 224.509L119.764 222.649L119.797 222.642L119.828 222.632L131.418 218.715C131.523 218.68 131.624 218.633 131.719 218.575L152.726 205.764C152.894 205.661 153.106 205.667 153.269 205.778L171.887 218.533C172.011 218.618 172.148 218.684 172.291 218.728L184.905 222.636Z" fill="url(#paint2_linear_2_11)" stroke="black"/>
<g id="flame">
<path id="flame4" d="M130.949 190.286C129.023 186.792 127.418 182.318 126.038 176.283C123.877 166.828 125.44 156.928 128.548 147.659C130.13 142.943 131.466 139.189 133.908 135.053C136.352 130.915 139.914 126.375 145.964 120.12C150.233 115.707 158.239 109.113 164.887 105.145C166.547 104.154 168.113 103.333 169.508 102.751C170.91 102.166 172.105 101.837 173.034 101.801C173.957 101.765 174.523 102.015 174.838 102.481C175.176 102.982 175.328 103.873 175.059 105.352C174.924 106.092 174.576 107.035 174.063 108.188C173.604 109.223 173.026 110.396 172.38 111.706C172.31 111.848 172.24 111.991 172.168 112.136C170.711 115.097 168.968 118.691 167.571 122.766C164.776 130.924 163.358 141.04 168.366 151.97C170.502 156.632 172.887 163.126 174.375 169.679C175.867 176.25 176.437 182.802 175.018 187.622C172.215 197.142 163.648 202.194 154.508 202.664C145.363 203.135 135.756 199.008 130.949 190.286Z" fill="url(#paint3_radial_2_11)" stroke="black"/>
<path id="flame3" d="M133.259 185.293C132.306 181.976 131.474 177.982 130.73 173.08C129.776 166.791 130.589 160.371 132.3 154.196C132.599 153.117 132.876 152.095 133.141 151.118C134.22 147.141 135.097 143.907 136.421 140.614C138.064 136.526 140.399 132.343 144.676 126.585C148.62 121.274 155.855 115.18 161.481 111.972C162.885 111.172 164.173 110.56 165.275 110.184C166.391 109.802 167.251 109.687 167.827 109.804C168.104 109.861 168.296 109.967 168.43 110.106C168.563 110.245 168.672 110.453 168.721 110.77C168.824 111.428 168.659 112.471 168.053 114.005C167.874 114.458 167.685 114.931 167.488 115.423C163.886 124.423 157.74 139.78 165.501 156.912C167.032 160.292 168.538 165.448 169.507 170.693C170.477 175.946 170.895 181.218 170.292 184.844C168.724 194.279 160.843 199.026 152.607 199.089C144.365 199.152 135.907 194.516 133.259 185.293Z" fill="url(#paint4_radial_2_11)" stroke="black"/>
<path id="flame2" d="M135.939 180.278C135.325 177.501 134.777 174.242 134.281 170.369C133.697 165.816 134.213 161.172 135.361 156.693C135.737 155.225 136.068 153.876 136.378 152.61C138.057 145.762 139.128 141.391 143.46 134.315C147.007 128.521 153.026 122.874 157.569 120.299C158.701 119.657 159.72 119.219 160.57 119.011C161.433 118.8 162.039 118.846 162.419 119.057C162.763 119.248 163.038 119.642 163.084 120.451C163.13 121.273 162.928 122.448 162.373 124.046C159.503 132.313 156.093 144.903 162.207 158.736C163.336 161.29 164.403 165.344 165.098 169.482C165.794 173.623 166.106 177.778 165.761 180.535C164.735 188.752 158.224 192.753 151.453 192.669C144.672 192.584 137.735 188.397 135.939 180.278Z" fill="url(#paint5_radial_2_11)" stroke="black"/>
<path id="flame1" d="M138.106 176.5C137.701 174.188 137.334 171.532 136.996 168.454C136.634 165.158 136.968 161.813 137.738 158.56C138.141 156.857 138.479 155.333 138.79 153.928C139.887 148.972 140.654 145.508 142.814 140.958C145.783 134.705 150.687 129.377 154.345 127.294C155.256 126.775 156.058 126.477 156.71 126.398C157.353 126.319 157.803 126.458 158.107 126.752C158.424 127.058 158.674 127.619 158.719 128.577C158.764 129.53 158.601 130.815 158.16 132.48C156.232 139.763 154.916 149.596 159.453 160.208C160.277 162.133 161.029 165.3 161.525 168.544C162.021 171.788 162.249 175.039 162.054 177.126C161.718 180.717 160.206 183.331 158.116 185.031C156.019 186.737 153.308 187.548 150.544 187.468C145.015 187.307 139.351 183.592 138.106 176.5Z" fill="url(#paint6_radial_2_11)" stroke="black"/>
</g>
</g>
</g>
<defs>
<radialGradient id="paint0_radial_2_11" cx="0" cy="0" r="1" gradientUnits="userSpaceOnUse" gradientTransform="translate(150 150) rotate(90) scale(150)">
<stop offset="0.421875" stop-color="#FF7A1A"/>
<stop offset="0.864583" stop-color="#FF9466" stop-opacity="0.36036"/>
<stop offset="1" stop-color="#FFC89F" stop-opacity="0"/>
</radialGradient>
<linearGradient id="paint1_linear_2_11" x1="86" y1="312" x2="224.5" y2="312.5" gradientUnits="userSpaceOnUse">
<stop stop-color="#C5C5C5"/>
<stop offset="0.505208" stop-color="#FFF8E0"/>
<stop offset="1" stop-color="#A6A6A6"/>
</linearGradient>
<linearGradient id="paint2_linear_2_11" x1="109" y1="226" x2="197" y2="226" gradientUnits="userSpaceOnUse">
<stop stop-color="#AFAFAF"/>
<stop offset="0.488125" stop-color="#FFEFC7"/>
<stop offset="1" stop-color="#A5A5A5"/>
</linearGradient>
<radialGradient id="paint3_radial_2_11" cx="0" cy="0" r="1" gradientUnits="userSpaceOnUse" gradientTransform="translate(150.5 157) rotate(90) scale(54 27.5)">
<stop stop-color="#FF3D00"/>
<stop offset="1" stop-color="#FFAA29"/>
</radialGradient>
<radialGradient id="paint4_radial_2_11" cx="0" cy="0" r="1" gradientUnits="userSpaceOnUse" gradientTransform="translate(150.5 159) rotate(90) scale(52 21.5)">
<stop stop-color="#FF9900"/>
<stop offset="1" stop-color="#FF5C00"/>
</radialGradient>
<radialGradient id="paint5_radial_2_11" cx="0" cy="0" r="1" gradientUnits="userSpaceOnUse" gradientTransform="translate(150 159.5) rotate(90) scale(45.5 17)">
<stop stop-color="#FF3D00"/>
<stop offset="1" stop-color="#FF9900"/>
</radialGradient>
<radialGradient id="paint6_radial_2_11" cx="0" cy="0" r="1" gradientUnits="userSpaceOnUse" gradientTransform="translate(149.5 160) rotate(90) scale(40 13.5)">
<stop stop-color="#FF5C00"/>
<stop offset="1" stop-color="#FF6B00"/>
</radialGradient>
</defs>
</svg>
