<svg width="101" height="289" viewBox="0 0 101 289" fill="none" xmlns="http://www.w3.org/2000/svg">
<rect x="9.5" y="123.5" width="84" height="165" fill="white" stroke="black"/>
<path d="M84.9047 121.636L84.92 121.64L84.9355 121.644L92.6966 123.514C93.2723 123.653 93.1716 124.5 92.5795 124.5H10.3356C9.73029 124.5 9.6457 123.625 10.2397 123.509L19.7643 121.649L19.7969 121.642L19.8285 121.632L31.4178 117.715C31.5229 117.68 31.6238 117.633 31.7185 117.575L52.7259 104.764C52.894 104.661 53.1065 104.667 53.2688 104.778L53.5514 104.366L53.2688 104.778L71.8874 117.533C72.0114 117.618 72.1476 117.684 72.2912 117.728L84.9047 121.636Z" fill="white" stroke="black"/>
<path d="M68.3656 50.9699C70.5017 55.6322 72.8874 62.1262 74.3752 68.6792C75.867 75.2501 76.4374 81.8017 75.0178 86.6222C72.2145 96.1418 63.6481 101.194 54.5078 101.664C45.3632 102.135 35.7559 98.0083 30.9487 89.2861C29.0227 85.7916 27.4175 81.3183 26.038 75.2834C23.8765 65.8279 25.44 55.9282 28.5483 46.6586C30.1297 41.9426 31.4664 38.189 33.9084 34.0531C36.3517 29.9151 39.914 25.3747 45.9641 19.1202C50.2329 14.7073 58.2391 8.11278 64.8875 4.14481C66.5472 3.15423 68.113 2.33302 69.5077 1.75105C70.91 1.16594 72.1055 0.837205 73.0343 0.800865C73.9574 0.76475 74.5234 1.01544 74.8381 1.48131C75.1762 1.98194 75.3279 2.87326 75.0585 4.35162C74.9236 5.09212 74.5755 6.03549 74.0635 7.18793C73.6035 8.22301 73.0255 9.39619 72.38 10.7064C72.3102 10.8481 72.2396 10.9913 72.1683 11.1362C70.7109 14.0969 68.9679 17.6913 67.5714 21.7663C64.776 29.9236 63.358 40.0402 68.3656 50.9699Z" fill="white" stroke="black"/>
<path d="M65.5012 55.912C67.0324 59.2918 68.5384 64.4484 69.5069 69.6932C70.477 74.9463 70.8946 80.2182 70.292 83.8438C68.7239 93.2794 60.8426 98.0262 52.6069 98.0888C44.3653 98.1515 35.9068 93.5159 33.2588 84.2935C32.3063 80.9764 31.4742 76.9824 30.7304 72.0803C29.7762 65.7912 30.5892 59.3707 32.3004 53.196C32.5993 52.1174 32.8764 51.0954 33.1414 50.1183C34.2199 46.1414 35.097 42.9072 36.421 39.6137C38.0641 35.5262 40.3993 31.3427 44.6756 25.585C48.6202 20.2739 55.8552 14.1802 61.4815 10.972C62.8847 10.1718 64.1735 9.55958 65.2746 9.1836C66.3915 8.80224 67.251 8.68671 67.8272 8.80416C68.1038 8.86054 68.2961 8.96659 68.4298 9.10612C68.5634 9.24543 68.672 9.45292 68.7215 9.76974C68.8244 10.4276 68.6587 11.4708 68.0528 13.005C67.8738 13.4582 67.6845 13.9311 67.4877 14.4229C63.8857 23.4235 57.7399 38.78 65.5012 55.912Z" fill="white" stroke="black"/>
<path d="M62.2073 57.7356C63.3363 60.2895 64.4027 64.3444 65.0979 68.482C65.7937 72.6233 66.1058 76.778 65.7613 79.5352C64.7345 87.7521 58.2237 91.753 51.4526 91.6687C44.6716 91.5843 37.7347 87.3969 35.9389 79.2784C35.3246 76.5012 34.7774 73.242 34.2806 69.3689C33.6966 64.8162 34.2132 60.1722 35.3613 55.6926C35.7373 54.2255 36.0681 52.8756 36.3783 51.6102C38.057 44.7617 39.1284 40.3905 43.4603 33.3145C47.0071 27.5211 53.0263 21.8743 57.5687 19.2992C58.7013 18.657 59.7202 18.2187 60.5695 18.011C61.4325 17.7999 62.0387 17.8463 62.4186 18.0571C62.7627 18.248 63.0383 18.6424 63.0835 19.451C63.1295 20.2728 62.9275 21.4481 62.3728 23.0461C59.503 31.3134 56.0927 43.9027 62.2073 57.7356Z" fill="white" stroke="black"/>
<path d="M59.4535 59.208C60.2765 61.133 61.0291 64.3001 61.5249 67.5442C62.0207 70.7877 62.2493 74.0389 62.054 76.1258C61.7181 79.7174 60.2065 82.3312 58.1161 84.0313C56.0189 85.7371 53.3082 86.5478 50.5435 86.4676C45.0147 86.3073 39.3508 82.5921 38.1064 75.5004C37.7007 73.1884 37.3335 70.5321 36.9959 67.4541C36.6343 64.1579 36.9675 60.8126 37.7377 57.5603C38.141 55.8573 38.4786 54.3328 38.7896 52.9282C39.887 47.9718 40.6539 44.5082 42.8141 39.9585C45.7832 33.7049 50.6867 28.3766 54.3451 26.2939C55.2564 25.775 56.0578 25.4767 56.7095 25.3976C57.3533 25.3194 57.8032 25.4576 58.1075 25.7516C58.424 26.0575 58.6742 26.6189 58.719 27.5771C58.7635 28.5304 58.6007 29.8148 58.1598 31.4802C56.2318 38.7633 54.9163 48.596 59.4535 59.208Z" fill="white" stroke="black"/>
</svg>
